<svg width="580" height="400" xmlns="http://www.w3.org/2000/svg">
 <!-- Created with Method Draw - http://github.com/duopixel/Method-Draw/ -->
 <g>
  <title>background</title>
  <rect fill="#fff" id="canvas_background" height="402" width="582" y="-1" x="-1"/>
  <g display="none" overflow="visible" y="0" x="0" height="100%" width="100%" id="canvasGrid">
   <rect fill="url(#gridpattern)" stroke-width="0" y="0" x="0" height="100%" width="100%"/>
  </g>
 </g>
 <g>
  <title>Layer 1</title>
  <path id="svg_1" d="m241.284728,165.994104c-7.230182,-1.252448 -14.755351,-2.07708 -20.865789,-2.300289l-1.077604,-0.037201c0.246826,-0.558022 0.43345,-0.936236 0.493651,-0.992038c0.132443,-0.111604 0.240805,-0.582823 0.252846,-1.04164c0,-0.25421 0.108362,-1.078842 0.276926,-2.170084c1.655537,0.062002 3.852887,0.111604 6.2489,0.130205c9.252948,0.074403 18.933325,0.843233 25.573534,2.052279c3.955229,0.719228 5.261598,0.694427 2.341833,-0.037201c-2.955886,-0.737828 -11.721203,-1.82287 -18.70456,-2.294089c-4.689685,-0.328613 -11.414176,-0.452617 -15.375425,-0.384415c0.114383,-0.706827 0.246826,-1.494258 0.385289,-2.300289c0.559873,-3.11872 0.746497,-6.256042 0.758537,-12.499683c0.01204,-9.684774 -0.493651,-12.350877 -3.5579,-18.755724c-1.246168,-2.616501 -2.65488,-4.836187 -4.358578,-6.845064c1.486973,-4.519975 1.450853,-11.520045 -0.090302,-17.658282c-1.270249,-5.034594 -1.715739,-5.357007 -6.146558,-4.389769c-3.756564,0.824632 -6.766632,1.946875 -10.625539,3.949552c-1.824101,0.948637 -4.340517,2.424294 -6.164618,3.583738c-4.755907,-1.723667 -9.674357,-2.864511 -14.923915,-3.478334c-5.3218,-0.620024 -18.367432,-0.272811 -22.996916,0.607623c-4.527142,0.861833 -8.602773,1.915874 -12.293116,3.168322c-1.842161,-1.171845 -4.515101,-2.752906 -6.423484,-3.744945c-3.876967,-2.008878 -6.887035,-3.124921 -10.655639,-3.949552c-4.418779,-0.973438 -4.87631,-0.644825 -6.140538,4.389769c-1.565235,6.21884 -1.577275,13.336715 -0.030101,17.844289c0.180604,0.51462 0.288966,0.880434 0.331107,1.165645c-6.272981,8.134714 -8.319827,17.236666 -6.959276,29.940956c0.355188,3.310928 0.90302,6.349045 1.667577,9.132953c-4.00339,-0.024801 -9.698438,0.124005 -13.81019,0.396815c-6.995397,0.477418 -15.760714,1.55006 -18.7166,2.287888c-2.913745,0.731628 -1.619416,0.756429 2.341833,0.043402c6.640209,-1.202846 16.326607,-1.984077 25.573534,-2.052279c1.745839,-0.0062 3.377296,-0.043402 4.779987,-0.080603c0.421409,1.469457 0.90302,2.870711 1.450853,4.203762l-0.042141,0.0062c-6.110437,0.217008 -13.629586,1.04164 -20.859768,2.294089c-5.424142,0.936236 -13.430922,2.808708 -14.364043,3.348129c-0.981282,0.564222 -0.180604,0.440217 4.02145,-0.657225c7.663632,-1.996477 17.626956,-3.527936 29.968233,-4.594377l1.378611,-0.124005c2.648859,6.336645 6.730511,11.172831 12.497801,14.942577c3.527799,2.312689 9.180706,4.687381 12.02823,5.059395c0.782618,0.099204 3.058229,0.582823 5.056914,1.066441c2.004705,0.483619 5.923813,1.209047 8.705115,1.624463l0.066221,0c-0.054181,0.037201 -0.102342,0.062002 -0.150503,0.099204c-3.371276,1.80427 -5.562605,4.612978 -7.037538,9.033749c-0.662215,0.204608 -1.486973,0.483619 -2.377953,0.799831c-3.184652,1.116043 -4.424799,1.345452 -7.651592,1.370253c-3.347195,0.024801 -4.141853,-0.124005 -6.140538,-1.091242c-2.907725,-1.395054 -5.616786,-3.961953 -7.422827,-7.024871c-3.016088,-5.121398 -8.229525,-8.742338 -12.576062,-8.742338c-3.714423,0 -4.418779,1.55006 -1.733799,3.813147c4.045531,3.403931 7.067639,6.876065 8.307787,9.529768c0.698336,1.488057 1.76992,3.788346 2.389994,5.108997c0.656195,1.407454 2.058886,3.317128 3.395356,4.637779c3.142511,3.087719 6.176659,4.563376 10.7038,5.257803c3.034148,0.458818 3.780645,0.458818 7.362625,-0.0124c1.727779,-0.217008 3.184652,-0.471218 4.491021,-0.78743c0,1.512858 0,3.255126 0,5.301205c0,10.949623 -0.126423,14.471359 -0.547832,15.500598c-0.794658,1.959276 -2.576618,3.974353 -4.310417,4.879588c-1.727779,0.905235 -2.263571,1.903473 -1.535134,2.821109c0.403349,0.496019 1.179946,0.582823 3.786665,0.409216c4.948551,-0.316212 8.44625,-2.201085 10.22821,-5.524413c0.571913,-1.066441 0.704356,-3.211724 0.88496,-14.372155c0.192644,-12.109068 0.276926,-13.274713 1.041483,-15.004579c0.46355,-1.02924 1.131785,-2.145283 1.505034,-2.449095c0.626094,-0.533221 0.668235,0.52082 0.668235,15.004579c-0.00602,15.984217 -0.162544,17.912492 -1.715739,20.98781c-0.349168,0.700627 -1.011383,1.612062 -1.474933,2.046079c-0.812718,0.762629 -1.155866,2.715705 -0.589973,3.304728c0.933121,0.954837 5.610766,-0.545621 8.163303,-2.616501c4.346538,-3.546537 4.864269,-6.47925 4.90039,-27.659268l0.01806,-12.42528l1.31841,0.130205l1.31841,0.124005l0.216725,16.250827c0.246826,18.296906 0.282946,18.563517 3.305054,22.097653c1.715739,1.996477 3.443517,3.10012 6.25492,3.961953c3.762584,1.165645 4.89437,-0.632424 2.365913,-3.751145c-2.751202,-3.391531 -2.883645,-4.687381 -2.733141,-24.763756c0.102342,-12.871697 0.102342,-12.871697 0.90904,-12.121468c1.697678,1.587261 2.022765,4.191362 2.022765,16.263228c0,14.992179 0.415389,16.418234 5.556585,19.034735c2.402034,1.209047 3.076289,1.357852 6.152578,1.370253c3.274954,0.0124 3.473618,-0.037201 3.594021,-0.917635c0.102342,-0.713028 -0.301007,-1.196646 -1.830121,-2.157683c-2.004705,-1.271049 -3.395356,-2.895512 -4.268276,-4.941591c-0.331107,-0.78743 -0.553852,-5.94603 -0.704356,-16.56704c-0.216725,-14.837173 -0.264886,-15.512999 -1.161886,-17.838089c-1.210047,-3.124921 -3.058229,-5.592616 -5.400061,-7.229479c-0.608034,-0.409216 -1.216067,-0.750229 -2.004705,-1.004439c0.969242,-0.099204 1.908383,-0.204608 2.817423,-0.341013c9.463653,-1.29585 14.466385,-2.374692 18.481815,-3.974353c8.494411,-3.36673 14.23762,-8.959346 17.35003,-16.889452c0.276926,-0.706827 0.553852,-1.376453 0.788638,-1.915874l2.396014,0.204608c12.347297,1.072641 22.310621,2.604101 29.974253,4.606778c4.202054,1.097442 5.002732,1.227647 4.02145,0.651025c-0.915061,-0.52702 -8.92184,-2.393292 -14.339962,-3.329529zm-36.205093,-0.192207c-1.402692,3.174523 -5.315779,7.25428 -8.47635,8.853942c-3.11843,1.587261 -8.00678,2.796308 -13.545304,3.37293c-3.786665,0.396815 -24.905299,0.51462 -28.390958,0.161206c-11.540599,-1.165645 -18.006224,-3.453533 -22.774171,-8.03551c-4.515101,-4.352568 -6.622149,-10.261396 -6.25492,-17.534277c0.234785,-4.550976 1.300349,-7.409286 4.087672,-10.88142c2.534477,-3.162122 5.201397,-5.115198 8.343907,-6.107236c2.630799,-0.830832 10.7038,-0.905235 21.558104,-0.186007c4.798048,0.316212 8.765317,0.316212 13.557344,0c11.353975,-0.737828 18.933325,-0.657225 21.732688,0.235609c4.400719,1.401254 8.410129,5.171 10.818183,10.193194c1.083624,2.244487 1.294329,3.199324 1.450853,6.665257c0.216725,4.774184 -0.583953,9.84598 -2.107047,13.262312zm-57.251486,-20.497991c-6.459605,-1.165645 -10.149948,10.224195 -5.195377,16.040019c2.353873,2.759107 4.44286,3.211724 7.055598,1.537659c2.420094,-1.55626 3.732484,-4.464172 3.732484,-8.233918c0,-5.028394 -2.22143,-8.723737 -5.592706,-9.343761zm39.209141,0.682026c-6.459605,-1.165645 -10.155968,10.211794 -5.201397,16.033819c2.359893,2.759107 4.44286,3.217924 7.061619,1.531459c2.414074,-1.55006 3.732484,-4.464172 3.732484,-8.233918c0,-5.009793 -2.22143,-8.717537 -5.592706,-9.33136zm-17.37411,22.395265c-0.138463,0.458818 -0.812718,1.140844 -1.492994,1.506658c-1.721759,0.911435 -2.961907,0.595223 -4.779987,-1.109843c-1.125765,-1.04784 -1.637477,-1.599662 -1.980624,-0.502219c-0.319067,1.016839 1.685638,3.056718 3.232813,3.682942c1.420752,0.582823 2.438155,0.601423 3.979309,-0.062002c1.529114,-0.657225 2.865584,-2.424294 2.865584,-3.571338c0,-1.066441 -1.486973,-1.016839 -1.824101,0.055802zm-1.908383,-3.565138c0.981282,-0.892834 1.204027,-2.728105 0.264886,-3.701543s-2.847524,-0.824632 -3.594021,0.26661c-0.866899,1.277249 -0.403349,2.250687 0.216725,3.286127c0.963222,0.76883 2.257551,0.923836 3.11241,0.148806z" stroke-width="1.5" stroke="#000" fill="#fff"/>
  <text style="cursor: move;" xml:space="preserve" text-anchor="start" font-family="Helvetica, Arial, sans-serif" font-size="24" id="svg_2" y="175.5" x="326.5" stroke-width="0" stroke="#000" fill="#000000">aaaaaa</text>
 </g>
</svg>